<?xml version="1.0" encoding="UTF-8"?>
<svg width="38px" height="24px" viewBox="0 0 38 24" version="1.1" xmlns="http://www.w3.org/2000/svg" xmlns:xlink="http://www.w3.org/1999/xlink">
    <title>Group 5</title>
    <g id="Symbols" stroke="none" stroke-width="1" fill="none" fill-rule="evenodd">
        <g id="Footer/Links/Desktop" transform="translate(-1306.000000, -408.000000)" fill-rule="nonzero">
            <g id="Group-5" transform="translate(1306.000000, 408.000000)">
                <g id="Group-4">
                    <path d="M35,0 L3,0 C1.3,0 0,1.3 0,3 L0,21 C0,22.7 1.4,24 3,24 L35,24 C36.7,24 38,22.7 38,21 L38,3 C38,1.3 36.6,0 35,0 Z" id="Path" fill="#000000" opacity="0.07"></path>
                    <path d="M35,1 C36.1,1 37,1.9 37,3 L37,21 C37,22.1 36.1,23 35,23 L3,23 C1.9,23 1,22.1 1,21 L1,3 C1,1.9 1.9,1 3,1 L35,1" id="Path" fill="#FFFFFF"></path>
                </g>
                <g id="Group" transform="translate(4.591103, 6.657765)" fill="#000000">
                    <g id="Path">
                        <path d="M5.39692244,1.55424387 C5.71925013,1.15133427 5.9378085,0.610218643 5.88018439,0.05739453 C5.40863093,0.0808114982 4.83330816,0.368472883 4.49996073,0.771841639 C4.20082044,1.11712713 3.93611687,1.68074142 4.0049903,2.21037814 C4.53439745,2.25629376 5.06334544,1.94590415 5.39692244,1.55424387"></path>
                        <path d="M5.87421536,2.31391787 C5.10512865,2.26800225 4.45174932,2.7501163 4.08465391,2.7501163 C3.71732892,2.7501163 3.1550921,2.33687568 2.54693966,2.34812501 C1.75558388,2.35960392 1.02139306,2.80728125 0.619631346,3.51897342 C-0.20639073,4.94235777 0.401532132,7.05447647 1.20505555,8.21384598 C1.59510878,8.78779128 2.06528477,9.41913111 2.68468654,9.39640287 C3.27011074,9.37344506 3.49945928,9.01759898 4.2106923,9.01759898 C4.92169574,9.01759898 5.12831604,9.39640287 5.74794739,9.38492397 C6.39030697,9.37344506 6.79206868,8.81097867 7.18212191,8.23703337 C7.62979924,7.58273573 7.812773,6.9513959 7.82425191,6.91695918 C7.812773,6.90548027 6.58544837,6.43461555 6.57396947,5.02271011 C6.56249056,3.84038279 7.53773841,3.2779164 7.58365404,3.2432501 C7.03289613,2.42870693 6.17243733,2.33687568 5.87398578,2.31391787"></path>
                    </g>
                    <g transform="translate(10.101437, 0.688734)">
                        <path d="M3.43747319,0.0252535932 C5.10834275,0.0252535932 6.27207424,1.17704702 6.27207424,2.85388561 C6.27207424,4.53669323 5.08446662,5.69445569 3.39568997,5.69445569 L1.54574948,5.69445569 L1.54574948,8.63672887 L0.209145667,8.63672887 L0.209145667,0.0252535932 L3.43747319,0.0252535932 Z M1.54574948,4.57250742 L3.07933132,4.57250742 C4.24329239,4.57250742 4.90539569,3.94598873 4.90539569,2.85985464 C4.90539569,1.77395013 4.24306281,1.1531709 3.08530035,1.1531709 L1.54574948,1.1531709 L1.54574948,4.57250742 Z" id="Shape"></path>
                        <path d="M6.60358504,6.85221815 C6.60358504,5.74817697 7.44498885,5.11568925 8.99647779,5.02018475 L10.6613783,4.91871122 L10.6613783,4.44118873 C10.6613783,3.74327125 10.2019925,3.36125325 9.38446481,3.36125325 C8.70996429,3.36125325 8.22050374,3.70722748 8.11948937,4.23824167 L6.91374508,4.23824167 C6.94978885,3.12249201 7.99987917,2.31093336 9.420279,2.31093336 C10.9478918,2.31093336 11.9444904,3.11055395 11.9444904,4.35188284 L11.9444904,8.6364993 L10.7093601,8.6364993 L10.7093601,7.60408649 L10.679515,7.60408649 C10.3273421,8.27835743 9.5513681,8.70192906 8.70996429,8.70192906 C7.46886498,8.70192906 6.60358504,7.96222836 6.60358504,6.85221815 L6.60358504,6.85221815 Z M10.6613783,6.29732783 L10.6613783,5.81383631 L9.17554872,5.90934081 C8.33988437,5.96306209 7.90460425,6.27322213 7.90460425,6.81617438 C7.90460425,7.34144912 8.35802104,7.6816839 9.06810616,7.6816839 C9.97493974,7.6816839 10.6613783,7.10268788 10.6613783,6.29732783 L10.6613783,6.29732783 Z" id="Shape"></path>
                        <path d="M13.0802134,10.9398566 L13.0802134,9.90767335 C13.1637798,9.91938183 13.3664973,9.93131989 13.4739399,9.93131989 C14.0646444,9.93131989 14.3989101,9.68107974 14.6018572,9.0361948 L14.7212378,8.65440639 L12.4594342,2.38853076 L13.8557283,2.38853076 L15.4313229,7.47276781 L15.4611681,7.47276781 L17.0365331,2.38853076 L18.3972426,2.38853076 L16.0518726,8.97053546 C15.5146598,10.4804708 14.9000791,10.9759003 13.5992895,10.9759003 C13.497816,10.9759003 13.1695193,10.9639623 13.0802134,10.9398566 L13.0802134,10.9398566 Z" id="Path"></path>
                    </g>
                </g>
            </g>
        </g>
    </g>
</svg>