<svg width="38" height="24" xmlns="http://www.w3.org/2000/svg"><g fill-rule="nonzero" fill="none"><path d="M35 0H3C1.3 0 0 1.3 0 3v18c0 1.7 1.4 3 3 3h32c1.7 0 3-1.3 3-3V3c0-1.7-1.4-3-3-3z" fill="#000" opacity=".07"/><path d="M35 1c1.1 0 2 .9 2 2v18c0 1.1-.9 2-2 2H3c-1.1 0-2-.9-2-2V3c0-1.1.9-2 2-2h32" fill="#FFF"/><g fill="#000"><path d="M9.988 8.212c.322-.403.54-.944.483-1.497-.471.024-1.047.311-1.38.715-.3.345-.564.909-.495 1.438.53.046 1.058-.264 1.392-.656M10.465 8.972c-.769-.046-1.422.436-1.79.436-.367 0-.929-.413-1.537-.402a2.267 2.267 0 00-1.927 1.17c-.826 1.424-.218 3.536.585 4.696.39.574.86 1.205 1.48 1.182.585-.023.815-.379 1.526-.379.71 0 .917.38 1.537.368.642-.012 1.044-.574 1.434-1.148.448-.654.63-1.286.642-1.32-.011-.012-1.238-.483-1.25-1.895-.011-1.182.964-1.744 1.01-1.779-.551-.815-1.411-.906-1.71-.93"/><g><path d="M18.13 7.372c1.67 0 2.835 1.152 2.835 2.828 0 1.683-1.188 2.841-2.877 2.841h-1.85v2.942h-1.336V7.372h3.228zm-1.892 4.547h1.534c1.164 0 1.826-.627 1.826-1.713S18.936 8.5 17.778 8.5h-1.54v3.419zM21.296 14.199c0-1.104.842-1.737 2.393-1.832l1.665-.102v-.477c0-.698-.46-1.08-1.277-1.08-.674 0-1.164.346-1.265.877h-1.206c.036-1.116 1.086-1.928 2.507-1.928 1.527 0 2.524.8 2.524 2.041v4.285h-1.235v-1.032h-.03c-.352.674-1.128 1.097-1.97 1.097-1.24 0-2.106-.74-2.106-1.85zm4.058-.555v-.484l-1.486.096c-.836.054-1.27.364-1.27.907 0 .525.453.865 1.163.865.906 0 1.593-.579 1.593-1.384zM27.773 18.286v-1.032c.083.012.286.024.393.024.591 0 .925-.25 1.128-.895l.12-.382-2.262-6.266h1.396l1.576 5.084h.03l1.575-5.084h1.36l-2.345 6.582c-.537 1.51-1.151 2.005-2.452 2.005a3.63 3.63 0 01-.52-.036z"/></g></g></g></svg>