<?xml version="1.0" encoding="UTF-8"?>
<svg width="120px" height="47px" viewBox="0 0 120 47" version="1.1" xmlns="http://www.w3.org/2000/svg" xmlns:xlink="http://www.w3.org/1999/xlink">
    <title>Logo/Simplified</title>
    <defs>
        <path d="M61.2638771,36.713458 C62.4492412,36.7483921 63.4330709,37.1992299 64.1908791,38.0996465 C64.2297039,38.1459105 64.260957,38.1981542 64.3059035,38.2620426 C63.9944998,38.4439513 63.6975949,38.6175199 63.382647,38.8016317 C63.1575921,38.6170478 62.9389812,38.4260122 62.7079657,38.2505552 C62.1829451,37.8519611 61.6007345,37.611829 60.919126,37.6735144 C60.4827096,37.7130118 60.0938174,37.8686413 59.7692036,38.1570831 C59.3677457,38.5138193 59.2726974,38.9622967 59.5489817,39.4162817 C59.696387,39.6586168 59.9017878,39.887419 60.1315145,40.0573683 C60.4680496,40.3066273 60.8516256,40.4945157 61.2116812,40.7143483 C61.8771798,41.1204957 62.5496057,41.5170442 63.2004444,41.9449073 C63.5967471,42.2054963 63.9286104,42.5449228 64.1929734,42.9398976 C64.7893607,43.8315021 64.7055894,44.7512742 63.9526141,45.5228126 C63.2059217,46.2878993 62.2622057,46.6145796 61.2073315,46.6314172 C59.9108093,46.6520314 58.7826352,46.2218079 57.8714611,45.3048683 C57.6778205,45.1098987 57.5241323,44.8770052 57.3208258,44.6225533 C57.6795926,44.4592131 57.988902,44.3185328 58.321893,44.1669947 C58.5434037,44.3986293 58.7581482,44.6283756 58.9786923,44.8527717 C59.578946,45.4638024 60.3235441,45.7187264 61.1778504,45.6781274 C61.632632,45.6564117 62.0688872,45.5511375 62.4656733,45.3207617 C63.3589655,44.8019442 63.5124925,43.8505428 62.7815878,43.131248 C62.4305538,42.7856844 62.0226519,42.4871715 61.6092727,42.2124201 C61.0990732,41.8733083 60.5452159,41.5974554 60.0306667,41.2640085 C59.5820069,40.9732063 59.1328638,40.6713889 58.7368832,40.3179573 C58.2914454,39.920622 58.0634907,39.3962969 58.1263192,38.7903017 C58.2079962,38.001611 58.6278194,37.4286614 59.3488971,37.0757019 C59.9497952,36.7815951 60.5995062,36.6939453 61.2638771,36.713458 Z M44.4861914,38.2589487 C44.3321588,38.3475465 44.1808623,38.4339412 44.0303707,38.5215948 C43.87666,38.6111367 43.723915,38.702095 43.5594204,38.7990333 C43.3572626,38.6306503 43.1660497,38.4649425 42.9677548,38.3075752 C42.5933767,38.0106232 42.1821401,37.7846437 41.7018545,37.6944723 C41.0982784,37.5811678 40.5486217,37.7097369 40.0601274,38.0638133 C39.5346138,38.4447995 39.4254873,38.9935392 39.794393,39.5200902 C39.9579219,39.7534659 40.1787503,39.9637086 40.4140645,40.1297311 C40.7464337,40.3640509 41.120329,40.5409318 41.4691155,40.7541644 L42.4540311,41.3486194 C42.7809279,41.5488299 43.1035192,41.754863 43.4131135,41.9780098 C43.7789611,42.2414427 44.1068237,42.586077 44.3678905,42.9513265 C44.9811238,43.8091356 44.8860002,44.7407499 44.1501202,45.4991029 C43.2804877,46.3948375 42.1766677,46.7026479 40.9553515,46.6189285 C39.8248132,46.5413464 38.8391332,46.1073274 38.0499775,45.2960991 C37.8587646,45.0997047 37.7050539,44.8683748 37.5064371,44.6181608 C37.8671342,44.4541841 38.1782576,44.3127109 38.5067639,44.1633693 C38.721637,44.3895061 38.9252434,44.6139119 39.1396336,44.8276167 C40.0203719,45.7058835 41.0757449,45.8566414 42.2317139,45.4987881 C42.4819967,45.4213634 42.7258415,45.2756413 42.9291259,45.1102483 C43.5038914,44.6423954 43.5854949,43.9026118 43.1324104,43.321297 C42.970652,43.1137295 42.7752543,42.9182794 42.5589326,42.7664199 C41.9851329,42.3635597 41.3960426,41.9805277 40.8040551,41.6030036 C40.4380466,41.3696279 40.0440321,41.1776398 39.6843007,40.936081 C39.3997347,40.7450371 39.1232164,40.5302308 38.8864536,40.2858394 C37.7675039,39.1306062 38.4072946,37.6751161 39.3981252,37.1364479 C39.9398951,36.8420137 40.5309168,36.7403544 41.1418968,36.7150183 C42.515958,36.6582087 43.6767556,37.1846023 44.4861914,38.2589487 Z M48.5118533,36.8683442 L48.5118533,37.320617 C48.5108799,39.0630675 48.5008211,40.8056759 48.5144491,42.5481264 C48.5183429,43.0379834 48.5657166,43.5311565 48.6401843,44.0159602 C48.7258465,44.5737212 49.0535692,44.9928315 49.5706247,45.2514987 C50.7340402,45.833421 51.9128684,45.8493706 53.0805021,45.2764496 C53.8251788,44.9110308 54.2140656,44.2983148 54.2440798,43.4825183 C54.2560855,43.1545257 54.2543009,42.8260594 54.2544631,42.4977511 L54.2547876,36.8773454 L55.4657391,36.8773454 C55.4777448,36.9454074 55.5012694,37.0159961 55.5012694,37.0865848 C55.5032163,39.0812279 55.5095436,41.0757131 55.4964022,43.0701983 C55.4942931,43.4071921 55.4287486,43.7481338 55.3557411,44.0794426 C55.1420724,45.0482602 54.5499002,45.7468828 53.6321145,46.1448323 C52.0609925,46.8257682 50.476567,46.7891316 48.9336746,46.0595574 C47.9498576,45.5943354 47.4071683,44.7957518 47.3143676,43.7258676 C47.2827311,43.3613963 47.2499588,42.9956617 47.2493098,42.6304009 C47.246065,40.8247838 47.253528,39.0190088 47.2570973,37.2133917 L47.2570973,36.8683442 L48.5118533,36.8683442 Z M104.61058,37.3962704 C105.153399,37.6638673 105.633715,38.0323228 106.063752,38.4672853 C107.807437,40.2309778 107.784055,42.9034957 106.003388,44.6281308 C104.905065,45.6920872 103.583777,46.2533191 102.092858,46.415038 C101.789356,46.4479778 101.483714,46.4609969 101.295898,46.4746434 C99.7708996,46.4476641 98.4433458,46.1273635 97.2404937,45.348415 C96.0530765,44.5793485 95.2772056,43.5205684 95.0615755,42.0715298 C94.919605,41.1169022 95.1039068,40.2256446 95.5788737,39.3965022 C96.043296,38.5858687 96.6894221,37.9557769 97.4964684,37.5285003 C99.8411971,36.2869826 102.220005,36.2179658 104.61058,37.3962704 Z M0.0673662492,39.2338875 C0.341539478,40.4464859 0.936342627,41.3768796 1.92531901,42.0321552 C2.71713003,42.5568796 3.59350798,42.7831788 4.54075208,42.725541 C6.09067334,42.6313678 7.93287806,41.5929426 8.4821694,39.253415 C8.49051586,39.3515253 8.50579145,39.449793 8.50610641,39.5479032 C8.50894105,40.4290056 8.5149253,41.3102654 8.50894105,42.1912103 C8.49366546,44.4145174 6.83067334,46.2245962 4.63083082,46.4197143 C2.44815365,46.6132576 0.481854438,45.0945174 0.0894134933,42.9112103 C0.0670512886,42.7875883 0.0385473516,42.6625489 0.0376024697,42.5381395 C0.0302008949,41.493415 0.0283111311,40.4488481 0.0261064067,39.4041237 C0.0261064067,39.3708954 0.0415394776,39.337667 0.0673662492,39.2338875 Z M28.8901064,36.9273206 C28.7948308,37.2747221 28.7063269,37.5342497 28.6538859,37.8008639 C28.5045946,38.5597615 28.6145159,39.3073206 28.8001851,40.044171 C29.2019174,41.6381867 29.8874292,43.1014938 30.8839647,44.4101552 C31.149634,44.7591316 31.4581379,45.0792891 31.7727836,45.3862182 C32.2080592,45.8106276 32.7165631,46.13173 33.3258544,46.33173 C33.0236497,46.412045 19.9401851,46.4295253 19.4279017,46.347793 C22.5882166,43.2014938 25.709634,40.0937773 28.8901064,36.9273206 Z M10.7999962,38.9030371 C10.9703899,39.0929584 11.0979489,39.2487064 11.2395237,39.3907536 C12.4840907,40.63973 13.7310198,41.8861867 14.9774765,43.1332733 C15.0486576,43.2046119 15.1181064,43.2779977 15.193382,43.3447694 C15.6266103,43.7296513 16.1623584,43.7324859 16.5927521,43.3516985 C16.6680277,43.2850843 16.7366891,43.2109111 16.8080277,43.1395725 C17.8584214,42.0883914 18.9096025,41.0379977 19.9588938,39.9855568 C20.301571,39.6417773 20.6393662,39.2931158 20.985508,38.9403599 C20.997004,38.9701237 21.0195237,39.0017773 21.0198387,39.0335883 C21.0267678,39.7638245 21.0340119,40.4942182 21.0347995,41.2246119 C21.0349568,41.5419347 20.9083426,41.8041395 20.6809411,42.0305962 C19.3422009,43.3635095 18.0110198,44.703982 16.6714922,46.0359505 C16.193067,46.5116985 15.617319,46.5104387 15.1351143,46.0310686 C13.7952718,44.6992576 12.4637757,43.3592576 11.1262954,42.0250843 C10.8823584,41.7817773 10.7406261,41.5011473 10.7449356,41.152171 C10.753697,40.4595725 10.7607836,39.7669741 10.7700749,39.0743757 C10.7707048,39.0287064 10.785508,38.9831946 10.7999962,38.9030371 Z M80.2724927,36.8683442 L80.2724927,46.287318 C80.1817405,46.2987747 80.109921,46.3146258 80.0379451,46.3154105 C79.7401839,46.3183924 79.4424226,46.316666 79.1166534,46.316666 L79.1166534,36.8683442 L80.2724927,36.8683442 Z M75.9793752,36.8683442 L75.9793752,46.2898043 L74.7707208,46.2898043 C74.7670177,44.7861694 74.7712038,43.2881855 74.7681447,41.7663419 L68.4703262,41.7663419 L68.4703262,46.2956123 C68.0591229,46.3321868 67.6797983,46.3113095 67.3160911,46.3105246 C67.2989173,46.2921066 67.2892571,46.2819906 67.2821968,46.2744559 L67.2729421,46.2643748 C67.2647309,46.2551135 67.2499186,46.2455382 67.2499186,46.2359629 C67.2417074,43.2241409 67.2344622,40.2123189 67.2280202,37.2006539 C67.2278611,37.1019185 67.2378433,37.0030262 67.2446055,36.8768207 L68.4392525,36.8768207 C68.4939937,37.2951511 68.4551919,37.7299636 68.462276,38.1619505 C68.4690382,38.5886005 68.463725,39.0155643 68.463725,39.4423712 L68.463725,40.8110102 L74.7391641,40.8110102 C74.7873042,40.1572218 74.7692718,39.4958987 74.7715258,38.8356744 C74.7737799,38.1864382 74.7720088,37.5372019 74.7720088,36.8683442 L75.9793752,36.8683442 Z M87.4274577,36.8775875 C88.4833374,36.9239117 89.5392171,36.981191 90.5703413,37.2488072 C91.1371059,37.3959178 91.6196092,37.6558655 91.9163688,38.2062785 C92.3790369,39.0645284 92.2260443,40.0143312 91.4899884,40.6439335 C91.2779514,40.8251613 91.0350083,40.968829 90.7751515,41.1517783 C90.9078476,41.2056146 91.0211698,41.2423922 91.1263426,41.2959155 C91.5095161,41.4904458 91.9160613,41.6516416 92.2667911,41.8954697 C93.46367,42.7274274 93.2782338,44.2828879 92.6190585,45.0342478 C92.053524,45.6785613 91.3386871,46.0468074 90.5129883,46.167313 C89.9188541,46.2540143 89.3151867,46.2947045 88.7147484,46.3094156 C87.9039644,46.3294477 87.0922578,46.3050336 86.2810125,46.2987736 C86.2335002,46.298304 86.1859879,46.2884445 86.1109524,46.279837 L86.1109524,36.8744575 C86.570084,36.8744575 86.9995397,36.8588074 87.4274577,36.8775875 Z M110.336572,36.8685312 C110.501868,36.8632126 110.572577,36.9722449 110.657062,37.0787743 L113.109404,40.1685969 C113.193583,40.274657 113.279904,40.3789964 113.385203,40.5086776 C113.472136,40.4098133 113.54759,40.3322236 113.614474,40.2472816 C114.427942,39.2142121 115.244777,38.1836456 116.048909,37.142911 C116.200124,36.9473724 116.35639,36.854296 116.603262,36.8727548 C116.893906,36.8943423 117.187153,36.8777606 117.46892,36.8777606 L117.490053,36.9203098 C117.492116,36.9248637 117.493511,36.928705 117.494327,36.9326679 C117.496623,36.9434616 117.497847,36.9589483 117.492031,36.9666134 C116.377511,38.4561481 115.262378,39.9452136 114.121686,41.468381 C115.336149,43.0445785 116.550918,44.6210888 117.821398,46.2697137 C117.324287,46.2722166 116.903702,46.2886419 116.485412,46.2650208 C116.393581,46.2598586 116.296547,46.1229816 116.223694,46.0289666 C115.356964,44.911268 114.494673,43.7899716 113.630391,42.6700829 C113.555855,42.5734087 113.476728,42.4803323 113.382754,42.3647299 C113.257711,42.5235072 113.150116,42.6580378 113.044664,42.7941326 C112.216043,43.8630248 111.379924,44.9259725 110.56569,46.0062841 C110.387079,46.2431205 110.200662,46.3346325 109.918742,46.314453 C109.618761,46.2931784 109.316178,46.30976 108.91748,46.30976 C110.215968,44.6486206 111.455837,43.062568 112.713001,41.4544586 C111.563279,39.9422414 110.424424,38.4442594 109.228939,36.8718163 C109.655646,36.8718163 109.996339,36.8794814 110.336572,36.8685312 Z M101.121529,37.5027759 C100.516665,37.4913253 99.8207191,37.608497 99.143876,37.8415855 C98.1399966,38.1876105 97.2915358,38.7643712 96.7430621,39.7095874 C96.0237349,40.9495365 95.9976026,42.2141122 96.8051074,43.425984 C97.3326446,44.2179516 98.0450949,44.8033394 98.9313024,45.1441881 C100.085252,45.5880915 101.266251,45.6343641 102.46406,45.3848057 C103.413382,45.186853 104.283238,44.8071039 105.006691,44.130112 C106.023408,43.1787785 106.319116,41.9882391 106.026005,40.6406864 C105.815571,39.6725693 105.22064,38.9679707 104.425514,38.4354435 C103.456172,37.7863721 102.382606,37.502619 101.121529,37.5027759 Z M87.5218672,41.7563405 C87.4271502,41.75681 87.3324331,41.7716776 87.2211099,41.7812242 L87.2211099,45.3441192 C87.2827682,45.3610213 87.317672,45.3768279 87.3533447,45.3794884 C88.2016465,45.4434972 89.0510246,45.4453752 89.8922534,45.3200181 C90.2642023,45.2646169 90.6379963,45.1516234 90.9833445,44.9998177 C91.5744034,44.7400265 91.9099108,44.2573783 91.916215,43.5920938 C91.9222117,42.9490324 91.5693293,42.5030054 91.0317793,42.2274077 C90.7293306,42.0723155 90.3912092,41.9694945 90.0577007,41.9009472 C89.2213923,41.7291094 88.370169,41.752115 87.5218672,41.7563405 Z M87.8133989,37.7766841 L87.2201873,37.7768406 L87.2201873,40.8065377 C88.1953423,40.8799366 89.1312881,40.868512 90.0283322,40.4861808 C90.1628735,40.4289015 90.2912643,40.3489297 90.4091993,40.2608198 C90.8374249,39.9415583 90.9744263,39.5066429 90.9227625,38.9764185 C90.8715599,38.4494806 90.5454319,38.1887504 90.1112096,38.0125306 C89.9978875,37.9666759 89.8774923,37.9361583 89.7580197,37.9092402 C89.1166807,37.764164 88.4648861,37.7727715 87.8133989,37.7766841 Z M40.6692506,0.564033708 C40.6746478,0.705154021 40.6848072,0.850719068 40.6848072,0.996442856 C40.6851247,3.65026669 40.6841722,6.30393179 40.683696,8.95775562 C40.683061,12.1447888 40.6806799,15.3319808 40.683061,18.519014 C40.6838547,19.5562245 41.0132413,20.4908886 41.6270909,21.3195141 C42.273006,22.1914757 43.1643339,22.6727769 44.2248793,22.825644 C45.1198583,22.9548588 46.0251554,22.9807335 46.9204519,22.8364384 C48.4334077,22.5927717 49.4847461,21.7441449 50.0731971,20.3286558 C50.3141652,19.7492529 50.4436975,19.1501662 50.442745,18.5152042 C50.4351255,12.7124449 50.4365542,6.90968557 50.435443,1.10692625 L50.435443,0.579272797 L59.212682,0.579272797 C59.2220477,0.701344249 59.2361769,0.799445884 59.2361769,0.897547519 C59.2271274,6.85269773 59.2568118,12.8081654 59.1858548,18.7625219 C59.1599801,20.9380606 58.5645445,23.0331178 57.2689044,24.8118053 C55.6592757,27.0219494 53.5135802,28.5283968 50.8192775,29.1841538 C48.9277256,29.6445013 47.0022032,29.7106961 45.0693788,29.6799005 C43.7486578,29.6589467 42.4322227,29.5795765 41.1291219,29.3376559 C39.0621617,28.9539801 37.2472815,28.0812248 35.6281283,26.7244697 C33.7683245,25.1659553 32.7206371,23.1764605 32.2182234,20.8501184 C32.0140831,19.9045012 31.9078857,18.9526931 31.9093144,17.9810424 C31.9170926,12.3433732 31.9066158,6.70554528 31.9023298,1.06787609 L31.9023298,0.564033708 L40.6692506,0.564033708 Z M77.7710557,0.211645652 C79.5619661,0.222598747 81.2979523,0.605957077 82.9513935,1.31012998 C84.0560687,1.78047811 84.9707315,2.5265585 85.8015793,3.37550274 C87.9436238,5.56421689 89.2040234,8.18835625 89.5672217,11.2249035 C89.8410491,13.5137829 89.8108884,15.8125042 89.6237333,18.107257 C89.5094401,19.5094119 89.0989372,20.837435 88.5946186,22.1486316 C88.0655365,23.5238006 87.2746912,24.7119734 86.2951036,25.7964885 C84.7624639,27.4931071 82.8826588,28.5652405 80.6434652,29.0222544 C79.43418,29.2690959 78.2221962,29.4272014 76.9816391,29.4216367 C72.651833,29.4016442 68.3218681,29.4121211 63.9919033,29.4110099 L63.5196502,29.4110099 L63.5196502,0.226249778 C63.6593419,0.218312753 63.7823658,0.205296031 63.9052309,0.205137291 C68.5271196,0.203232405 73.1493258,0.18307236 77.7710557,0.211645652 Z M15.5873567,0.0836690529 C17.435255,0.155737244 19.2474366,0.447661041 20.9562782,1.20802808 C22.661945,1.96680772 24.0644174,3.12561343 25.2437006,4.5487221 C26.1416957,5.63244356 26.6399821,6.9280836 26.9960371,8.276108 C27.298279,9.4211033 27.457337,10.5824489 27.4551147,11.7739551 C27.4446378,17.3860671 27.4570195,22.9983378 27.4613761,28.6104498 L27.4613761,29.096672 C27.172874,29.1865191 19.5238038,29.2239818 18.6994644,29.1417543 C18.6910511,29.0292072 18.6742246,28.9087232 18.6742246,28.7883979 C18.6745421,23.9634801 18.6762883,19.1385623 18.6778757,14.3136445 C18.6781932,13.2343678 18.6851777,12.1550911 18.6777169,11.0758144 C18.6621604,8.77042595 16.9650656,6.98284907 14.6742813,6.83823647 C13.8483544,6.78616958 13.0246499,6.75791377 12.2084062,6.9245913 C11.0643634,7.15825733 10.1816074,7.77321807 9.58934655,8.78137904 C9.151064,9.5273007 8.91565183,10.3308452 8.91692175,11.207569 C8.92485878,17.0101696 8.92406507,22.8127701 8.9261287,28.6153707 L8.9261287,29.1565171 C5.9891118,29.1671527 3.08860521,29.1569933 0.120316423,29.1576283 L0.120316423,28.698392 C0.12872967,22.832454 0.0957116439,16.965881 0.165557468,11.1005779 C0.193813279,8.73804288 0.83004524,6.47900669 2.31617389,4.59237574 C3.84992469,2.64542339 5.8108462,1.25104676 8.24862421,0.605290367 C9.41933546,0.295111411 10.6110005,0.111766123 11.8183808,0.0800180212 C13.0740182,0.0469999952 14.3326717,0.034776976 15.5873567,0.0836690529 Z M72.6642148,6.77096224 C72.5532551,6.77096224 72.4422955,6.78286778 72.3106996,6.79048732 L72.3106996,22.7091443 C72.3999118,22.7242247 72.4488039,22.7402575 72.4973785,22.7397916 C73.6523744,22.7269233 74.8080053,22.7331142 75.9618901,22.690413 C76.6457442,22.6651732 77.32182,22.5404032 77.9780533,22.3267385 C78.459672,22.1699028 78.8676351,21.912267 79.2154356,21.5406555 C79.881352,20.8291805 80.320587,20.00119 80.5699683,19.0628748 C80.8164924,18.135989 80.8925291,17.1916417 80.9101493,16.237135 C80.9374526,14.7519588 80.9703119,13.265354 80.7196606,11.7946231 C80.5509195,10.8040824 80.29122,9.83909881 79.7483275,8.970312 C79.3478252,8.32915908 78.8342996,7.8229356 78.1526679,7.48894556 C77.2376876,7.04082111 76.2661957,6.81271099 75.2539074,6.78128037 C74.3914702,6.75461197 73.5274457,6.77143846 72.6642148,6.77096224 Z" id="path-1"></path>
    </defs>
    <g id="Symbols" stroke="none" stroke-width="1" fill="none" fill-rule="evenodd">
        <g id="Nav/Desktop/Signed-out" transform="translate(-660.000000, -16.000000)">
            <g id="Logo/Simplified" transform="translate(660.000000, 16.000000)">
                <g id="Group" transform="translate(0.000000, 0.157480)">
                    <mask id="mask-2" fill="white">
                        <use xlink:href="#path-1"></use>
                    </mask>
                    <use id="Mask" fill="#FFFFFF" xlink:href="#path-1"></use>
                    <rect id="Rectangle-Copy" fill="#242424" mask="url(#mask-2)" x="0" y="-1" width="130.952756" height="49.7716535"></rect>
                </g>
                <path d="M105.880649,0.175430797 C113.639441,0.175430797 119.929184,6.74945638 119.929184,14.8589279 C119.929184,22.9683994 113.639441,29.542425 105.880649,29.542425 C98.1218576,29.542425 91.8321142,22.9683994 91.8321142,14.8589279 C91.8321142,6.74945638 98.1218576,0.175430797 105.880649,0.175430797 Z M105.96002,8.58867779 C102.628561,8.58867779 99.9278802,11.4314997 99.9278802,14.9382982 C99.9278802,18.4450967 102.628561,21.2879185 105.96002,21.2879185 C109.291478,21.2879185 111.992159,18.4450967 111.992159,14.9382982 C111.992159,11.4314997 109.291478,8.58867779 105.96002,8.58867779 Z" id="Combined-Shape" fill="#FFFFFF"></path>
                <g id="Group-2" transform="translate(91.811024, 0.157480)">
                    <ellipse id="Oval" fill="#242424" cx="14.0944882" cy="14.7315272" rx="14.0944882" ry="14.7315272"></ellipse>
                    <circle id="Oval" fill="#FFFFFF" cx="14.1741181" cy="14.8111571" r="5.73335113"></circle>
                    <path d="M12.263001,12.5815205 L16.0852351,12.5815205 C16.2611486,12.5815205 16.4037546,12.7241266 16.4037546,12.90004 L16.4037546,16.7222741 C16.4037546,16.8981876 16.2611486,17.0407936 16.0852351,17.0407936 L12.263001,17.0407936 C12.0870876,17.0407936 11.9444815,16.8981876 11.9444815,16.7222741 L11.9444815,12.90004 C11.9444815,12.7241266 12.0870876,12.5815205 12.263001,12.5815205 Z" id="Rectangle" fill="#262B41"></path>
                    <path d="M14.1741181,6.68890965 C18.6599115,6.68890965 22.2963655,10.3253637 22.2963655,14.8111571 C22.2963655,19.2969505 18.6599115,22.9334045 14.1741181,22.9334045 C9.68832468,22.9334045 6.05187063,19.2969505 6.05187063,14.8111571 C6.05187063,10.3253637 9.68832468,6.68890965 14.1741181,6.68890965 Z M14.1741181,8.44076694 C10.6558487,8.44076694 7.80372792,11.2928878 7.80372792,14.8111571 C7.80372792,18.3294264 10.6558487,21.1815472 14.1741181,21.1815472 C17.6923874,21.1815472 20.5445082,18.3294264 20.5445082,14.8111571 C20.5445082,11.2928878 17.6923874,8.44076694 14.1741181,8.44076694 Z" id="Combined-Shape" fill="#49CCAF"></path>
                    <path d="M12.90004,13.2185595 L15.4481961,13.2185595 C15.6241096,13.2185595 15.7667156,13.3611656 15.7667156,13.5370791 L15.7667156,16.0852351 C15.7667156,16.2611486 15.6241096,16.4037546 15.4481961,16.4037546 L12.90004,16.4037546 C12.7241266,16.4037546 12.5815205,16.2611486 12.5815205,16.0852351 L12.5815205,13.5370791 C12.5815205,13.3611656 12.7241266,13.2185595 12.90004,13.2185595 Z" id="Rectangle" fill="#49CCAF"></path>
                </g>
                <path d="M31.7477939,38.9262813 C31.9127045,38.9950536 32.0780877,39.0910813 32.206929,39.213572 C33.2809744,40.2337472 33.8264237,41.5115808 34.015748,42.9954144 C33.9705433,43.194759 33.9473897,43.4205667 33.8672182,43.6237143 C33.7147507,44.0094096 33.34508,44.1803896 32.9516257,44.0526696 C32.7730119,43.9946727 32.5951856,43.903082 32.4479159,43.7870881 C32.2589066,43.6382928 32.0820254,43.464619 31.932708,43.2754159 C31.2489669,42.4092653 30.7879417,41.4353609 30.6299614,40.3359549 C30.5891669,40.051675 30.6033426,39.7434673 30.6668182,39.4633074 C30.7847915,38.9421275 31.2546371,38.7204398 31.7477939,38.9262813 Z M16.3342931,37.1354286 C16.8013036,37.5826069 17.2509882,38.0484838 17.7025629,38.5118252 C17.8288842,38.6412883 17.8841694,38.8083067 17.875664,38.9735821 C17.8761365,39.1894066 17.7978551,39.3530974 17.6627135,39.4896912 C17.2292521,39.9276788 16.800201,40.3704203 16.3574467,40.7987417 C16.0566069,41.0896771 15.6681928,41.0918955 15.3653054,40.799851 C14.9143607,40.3653495 14.4731815,39.9199142 14.0419253,39.4656051 C13.7721145,39.1814836 13.7711694,38.7732867 14.0420828,38.488056 C14.4804269,38.0264576 14.9288514,37.5735746 15.3892466,37.1341609 C15.6699254,36.8662024 16.0532993,36.8663609 16.3342931,37.1354286 Z M4.25336924,36.8505148 C5.35560849,36.8623994 6.23387172,37.7668977 6.22869691,38.885319 C6.22347621,40.017685 5.32709959,40.906971 4.19997411,40.8979387 C3.07914895,40.8889063 2.19395538,39.9793373 2.20482342,38.848239 C2.21569145,37.72649 3.12624377,36.8384717 4.25336924,36.8505148 Z" id="Mask" fill="#49CCAF"></path>
            </g>
        </g>
    </g>
</svg>