<svg width="108" height="104" xmlns="http://www.w3.org/2000/svg"><g fill="none" fill-rule="evenodd"><path d="M39.78 51.876c-4.043 5.979-7.108 26.178 3.214 39.471 8.907 11.471 23.486 13.132 34.846 12.554 12.077-.615 21.974-8.925 27.176-19.445 5.107-10.327 4.426-36.448-8.118-43.12-18.15-9.652-45.758-6.251-57.118 10.54z" fill="#FF9EB6"/><path d="M72.112 81.433l1.522 2.588-3.448 2.026-1.52-2.585 3.447-2.029zm-39.548-.777l3.623 1.134-.896 2.864-3.624-1.134.896-2.864zM61.5 33c3.335 0 5.991 1.675 7.92 4.989 2.721-2.317 6.102-3.489 10.08-3.489H81V36c0 .732-.032 1.421-.093 2.069 1.388-.386 2.895-.569 4.593-.569H87V39c0 5.633-1.92 8.668-3.662 10.43l4.636 1.732C89.154 51.531 90 52.682 90 54v12a3.018 3.018 0 01-1.478 2.586L61.486 83.604A2.94 2.94 0 0160 84c-.309 0-.614-.046-.907-.141L8.13 68.871A2.994 2.994 0 016 66V54c0-1.059.569-2.049 1.48-2.587l30.09-15.048c.57-.344 1.511-.477 2.318-.232l20.976 6.16C60.444 40.806 60 38.652 60 34.5V33h1.5zM12.906 74.516l15.666 4.894-.894 2.864-15.665-4.897.893-2.861zm74.109-1.849l1.52 2.588-10.796 6.35-1.52-2.587 10.796-6.35zM8.92 55.242L9 66l49.5 14.559V70.357a4.527 4.527 0 01-.246-.072L8.92 55.242zm78.084.255l-25.098 14.38c-.131.079-.267.15-.405.214L61.5 80.141l25.531-14.159-.027-10.486zM63.03 36.187c.12 3.37.597 4.913.96 6.083.262.847.51 1.647.51 2.73 0 2.988-2.535 5.227-5.47 7.822-3.534 3.122-7.51 6.634-7.983 12.13l8.103 2.472c.428.136.876.085 1.243-.137l10.162-5.823c.499-1.11 1.445-3.56 1.445-6.171V48c0-1.122.861-1.773 1.694-2.403 1.468-1.11 3.841-2.904 4.246-8.023-3.005.29-5.457 1.45-7.451 3.523-.11 3.11-1.047 7.841-2.982 12.266.06 2.549.744 3.769 1.816 4.873l-2.154 2.09c-.84-.867-1.46-1.768-1.889-2.786-1.51 2.33-3.376 4.345-5.628 5.67l-1.521-2.587c1.533-.902 2.879-2.26 4.036-3.871A8.859 8.859 0 0160 57v-3c2.696 0 3.843-1.293 6.07-5.433.906-2.914 1.382-5.73 1.427-7.76l.124.284c-1.423-3.321-3.121-4.505-4.591-4.904zM54.9 52.507l-.178.002a38.023 38.023 0 00-5.228.48c.37.36.654.725.82 1.051l-2.659 1.386c-.221-.357-1.438-1.347-2.46-1.466-.936.28-1.848.598-2.722.957 2.52 1.126 4 2.976 4.513 3.709l-2.457 1.718c-.528-.75-2.466-3.134-5.966-3.33-1.299.909-2.393 1.959-3.199 3.157l12.758 3.89c.641-5.106 3.696-8.667 6.778-11.554zM43.496 48c-1.469 0-2.977.098-4.481.293.419.468.733.952.921 1.384l-2.751 1.196c-.254-.582-1.33-1.65-2.541-1.73a29.683 29.683 0 00-3.686 1.227c1.212.575 1.918 1.312 2.4 1.815l-2.164 2.078c-.716-.748-1.598-1.668-4.256-1.756-1.618 1.11-2.943 2.419-3.836 3.924l9.293 2.833c2.937-5.123 9.609-8.103 16.566-9.235C48.03 48.937 45.965 48 43.496 48zm40.446-7.434c-1.377.124-2.582.422-3.693.911-1.178 3.816-3.463 5.543-4.746 6.514-.168.127-.365.276-.503.39v6.912c0 1.396-.21 2.732-.5 3.91l3.5-2.006V51c0-1.122.86-1.773 1.692-2.401 1.47-1.112 3.845-2.906 4.25-8.033zm-44.916-1.559L11.329 52.84l8.84 2.696C23.9 48.308 34.638 45 43.494 45c4.157 0 7.663 1.969 8.693 4.636a40.442 40.442 0 013.307-.136c.932 0 1.732.069 2.508.22 1.693-1.517 3.071-2.883 3.415-4.137l-22.392-6.575zM81 51.758v3.72l3.93-2.252L81 51.758zM19.5 24v7.5h-3V24h3zm9-4.5v3H21v-3h7.5zm-13.5 0v3H7.5v-3H15zm4.5-9V18h-3v-7.5h3z" fill="#242424"/></g></svg>