<svg width="78" height="72" xmlns="http://www.w3.org/2000/svg"><g fill="none" fill-rule="evenodd"><path d="M30.155 35.914c-2.799 4.14-4.92 18.124 2.226 27.326 6.166 7.942 16.259 9.091 24.124 8.691 8.36-.425 15.212-6.179 18.814-13.461 3.535-7.15 3.064-25.234-5.62-29.853-12.566-6.682-31.679-4.328-39.544 7.297z" fill="#FFD98C"/><g><path d="M56.14 37.166a8.776 8.776 0 11-9.277 9.491c5.012-.692 8.104-3.854 9.275-9.484z" stroke="#242424" stroke-width="2.5" stroke-linecap="round"/><rect stroke="#242424" stroke-width="2.5" stroke-linecap="round" x="10.853" y="21.354" width="22.817" height="6.143" rx="3.072"/><path d="M4.885 44.17h17.2a8.776 8.776 0 11-17.2 0z" stroke="#242424" stroke-width="2.5" stroke-linecap="round" stroke-linejoin="round"/><path d="M13.485 27.497H30.16c-2.089 5.11-2.089 9.06 0 11.848 2.033 2.713 10.092 3.071 14.041-1.756 3.32-4.058 3.76-13.126 1.317-27.204h4.388c4.437 15.934 6.631 24.125 6.581 24.572-.877 7.898-4.826 11.847-11.847 11.847H22.261V44.17H2.077c0-11.116 3.803-16.674 11.408-16.674zM56.486 11.701v8.776l-4.2-1.755-1.065-5.266z" stroke="#242424" stroke-width="2.5" stroke-linecap="round"/><path stroke="#242424" stroke-width="2.65" stroke-linecap="square" d="M45.078 13.456h-7.021"/><path stroke="#242424" stroke-width="2" stroke-linecap="square" stroke-linejoin="round" d="M10.384 10.904h13.5M32.192 54.519h10.385M6.231 16.096h10.384"/><path fill="#242424" d="M27 53.481h2.077v2.077H27zM5.192 9.865h2.077v2.077H5.192zM1.038 15.058h2.077v2.077H1.038z"/></g></g></svg>