<?xml version="1.0" encoding="UTF-8"?>
<svg width="78px" height="72px" viewBox="0 0 78 72" version="1.1" xmlns="http://www.w3.org/2000/svg" xmlns:xlink="http://www.w3.org/1999/xlink">
    <title>Group 23</title>
    <g id="Desktop" stroke="none" stroke-width="1" fill="none" fill-rule="evenodd">
        <g id="Screens/02-Order-Online/04-We-deliver" transform="translate(-683.000000, -209.000000)">
            <g id="Group-23" transform="translate(683.000000, 209.000000)">
                <path d="M65.0087859,70.7676338 C60.8696416,73.5670121 46.885368,75.6882895 37.6827791,68.5425708 C29.7413799,62.3761533 28.5918025,52.2832764 28.9918788,44.4181959 C29.4171708,36.0574018 35.17077,29.2056932 42.4535206,25.6043079 C49.6031401,22.0687571 67.6868587,22.5398438 72.305613,31.2244818 C78.9881275,43.7896054 76.6336472,62.9028919 65.0087859,70.7676338 Z" id="Path" fill="#FFD98C" transform="translate(52.461538, 48.461538) scale(-1, 1) rotate(-90.000000) translate(-52.461538, -48.461538) "></path>
                <g id="sharing-sushi">
                    <path d="M56.1395761,37.1663782 C60.7391752,37.4407354 64.3846154,41.2578122 64.3846154,45.9263272 C64.3846154,50.7730298 60.4555866,54.7020585 55.6088841,54.7020585 C51.0082501,54.7020585 47.2344742,51.1618582 46.8631414,46.6570426 C51.8753609,45.9645922 54.9668149,42.8028518 56.1383524,37.1726472 Z" id="Combined-Shape" stroke="#242424" stroke-width="2.5" stroke-linecap="round"></path>
                    <rect id="Rectangle" stroke="#242424" stroke-width="2.5" stroke-linecap="round" x="10.8526544" y="21.3542795" width="22.8169014" height="6.14301192" rx="3.07150596"></rect>
                    <path d="M4.88528533,44.1707059 L22.0854622,44.1707059 C22.2006412,44.7379584 22.2611051,45.3250817 22.2611051,45.9263272 C22.2611051,50.7730298 18.3320764,54.7020585 13.4853738,54.7020585 C8.63867121,54.7020585 4.70964247,50.7730298 4.70964247,45.9263272 C4.70964247,45.3250817 4.77010636,44.7379584 4.88528533,44.1707059 Z" id="Combined-Shape" stroke="#242424" stroke-width="2.5" stroke-linecap="round" stroke-linejoin="round"></path>
                    <path d="M13.4853738,27.4972914 C21.0910076,27.4972914 26.6489707,27.4972914 30.1592633,27.4972914 C28.0703427,32.6077175 28.0703427,36.5567966 30.1592633,39.3445287 C32.1923077,42.0576923 40.2513543,42.4160347 44.2004334,37.5893824 C47.5205839,33.5314207 47.9593704,24.463165 45.5167931,10.3846154 L49.9046587,10.3846154 C54.3421397,26.3194425 56.5360725,34.5101251 56.4864572,34.9566631 C55.6088841,42.8548212 51.659805,46.8039003 44.6392199,46.8039003 L22.2611051,46.8039003 L22.2611051,44.1711809 L2.07692308,44.1711809 C2.07692308,33.0552546 5.87973998,27.4972914 13.4853738,27.4972914 Z" id="Rectangle" stroke="#242424" stroke-width="2.5" stroke-linecap="round"></path>
                    <polygon id="Rectangle" stroke="#242424" stroke-width="2.5" stroke-linecap="round" points="56.4864572 11.7009751 56.4864572 20.4767064 52.2865385 18.7215601 51.2210184 13.4561213"></polygon>
                    <line x1="45.0780065" y1="13.4561213" x2="38.0574215" y2="13.4561213" id="Line" stroke="#242424" stroke-width="2.65" stroke-linecap="square"></line>
                    <line x1="23.8846154" y1="10.9038462" x2="10.3846154" y2="10.9038462" id="Line" stroke="#242424" stroke-width="2" stroke-linecap="square" stroke-linejoin="round" transform="translate(17.134615, 10.903846) scale(-1, 1) translate(-17.134615, -10.903846) "></line>
                    <line x1="42.5769231" y1="54.5192308" x2="32.1923077" y2="54.5192308" id="Line" stroke="#242424" stroke-width="2" stroke-linecap="square" stroke-linejoin="round" transform="translate(37.384615, 54.519231) scale(-1, 1) translate(-37.384615, -54.519231) "></line>
                    <line x1="16.6153846" y1="16.0961538" x2="6.23076923" y2="16.0961538" id="Line" stroke="#242424" stroke-width="2" stroke-linecap="square" stroke-linejoin="round" transform="translate(11.423077, 16.096154) scale(-1, 1) translate(-11.423077, -16.096154) "></line>
                    <rect id="Rectangle" fill="#242424" x="27" y="53.4807692" width="2.07692308" height="2.07692308"></rect>
                    <rect id="Rectangle" fill="#242424" x="5.19230769" y="9.86538462" width="2.07692308" height="2.07692308"></rect>
                    <rect id="Rectangle" fill="#242424" x="1.03846154" y="15.0576923" width="2.07692308" height="2.07692308"></rect>
                </g>
            </g>
        </g>
    </g>
</svg>