<svg width="64" height="64" xmlns="http://www.w3.org/2000/svg"><g fill="#242424" fill-rule="evenodd"><path d="M49.006 8.75l.551 1.981.212.762 5.875-1.96v12.062l-3.48-1.453c2.52 9.162 3.532 13.126 3.473 13.658l-.046.382c-.023.183-.047.364-.074.543a9.703 9.703 0 017.733 9.5c0 5.358-4.343 9.701-9.7 9.701a9.705 9.705 0 01-9.481-7.637c-.353.02-.714.031-1.083.031H22.46c-.958 4.351-4.836 7.606-9.474 7.606-5.358 0-9.7-4.343-9.7-9.7 0-.148.002-.295.01-.441H.75v-1.25c0-9.7 3.012-15.487 8.997-16.942a4.208 4.208 0 013.661-6.28h16.057a4.208 4.208 0 01.44 8.393c-1.562 4.173-1.472 7.284.138 9.432 1.736 2.317 8.594 1.884 11.553-1.732 2.579-3.152 3.18-10.23 1.646-21.123h-7.92v-2.65h7.516c-.076-.466-.155-.94-.239-1.42l-.254-1.463h6.66zM42 51.5v2H30v-2h12zm13.015-14.326l-.085.307c-.608 2.107-1.529 3.85-2.754 5.215l-.065.072a7.955 7.955 0 01-.292.307c-.055.056-.11.11-.166.164l-.043.04-.056.055c-.96.902-2.08 1.603-3.356 2.099-.038.013-.075.028-.113.042-.06.024-.122.046-.184.068l-.092.032c-.071.025-.143.05-.216.073l-.07.022a11.532 11.532 0 01-.95.262l.305-.075-.237.06-.069.015-.008.003-.011.001.017.07a7.206 7.206 0 006.735 5.416l.244.004a7.2 7.2 0 001.615-14.22l-.149-.032zm-34.844 6.611H5.8l-.006.075-.009.365a7.2 7.2 0 1014.393-.365l-.007-.075zm26.935-32.536h-1.798l.162 1.01c1.909 12.302 1.374 20.437-1.782 24.532l-.157.198c-3.926 4.798-12.712 5.354-15.49 1.648-2.028-2.707-2.281-6.299-.865-10.697l.07-.212h-14.26c-6.228 0-9.45 4.314-9.718 13.521l-.001.036h1.395l.043-.002h16.562l.043.001 1.377.001-.001 2.535h20.3c.703 0 1.368-.043 1.997-.132a12.47 12.47 0 00.576-.095l-.04.007.216-.043-.176.036.293-.06-.117.024c.099-.02.197-.042.294-.065l-.177.04c.093-.02.185-.041.276-.064l-.1.024a10.3 10.3 0 00.263-.066l-.163.042.26-.068-.097.026c.19-.05.374-.105.556-.165 1.264-.42 2.338-1.075 3.226-1.976a.705.705 0 00.036-.034l-.036.034c.17-.172.333-.353.49-.543l.15-.187a9.002 9.002 0 00.696-1.045l-.084.143c.668-1.119 1.166-2.47 1.5-4.061l.136-.706c.056-.325.105-.66.149-1.003l.042-.36c.009-.08-.624-2.497-1.764-6.707L47.106 11.25zM29.465 21.813H13.408a1.708 1.708 0 100 3.416h16.057a1.708 1.708 0 100-3.416zm23.679-8.812l-2.376.792.675 3.337 1.701.71v-4.839zM17 14.5v2H5v-2h12zm7-5v2H9v-2h15z" fill-rule="nonzero"/><path d="M26 51.5h2v2h-2zM5 9.5h2v2H5zM1 14.5h2v2H1z"/></g></svg>