<svg width="106" height="104" xmlns="http://www.w3.org/2000/svg"><g fill="none" fill-rule="evenodd"><path d="M37.78 51.876c-4.043 5.979-7.108 26.178 3.214 39.471 8.907 11.471 23.486 13.132 34.846 12.554 12.077-.615 21.974-8.925 27.176-19.445 5.107-10.327 4.426-36.448-8.118-43.12-18.15-9.652-45.758-6.251-57.118 10.54z" fill="#FFD98C"/><path d="M66 16.61c1.095 0 2.154.23 3.141.687l19.5 9A7.53 7.53 0 0193 33.108a7.42 7.42 0 01-.591 2.918l-.627 1.507a4.484 4.484 0 011.07 4.221L80.931 87.3l-2.902-.76 11.92-45.547.05-.383a1.5 1.5 0 00-2.939-.425L73.593 85.719l-2.877-.849 7.852-26.548a7.478 7.478 0 01-2.068.287 7.442 7.442 0 01-3.141-.687l-14.376-6.635-1.494 26.53-2.994-.171 2.504-44.45c.001-.914-.671-1.586-1.499-1.586-.774 0-1.43.601-1.495 1.37l-4.472 52.318-2.99-.255 4.474-52.318c.194-2.308 2.164-4.116 4.483-4.116.164 0 .327.01.487.027l3.101-7.438A7.489 7.489 0 0166 16.61zM54.304 81.257l2.994.206-.168 2.438-2.994-.207.168-2.438zM22.408 7.5l2.876.849-9.457 31.972c2.951-2.757 6.488-4.212 10.418-4.212 3.383 0 6.19 2.5 6.676 5.748a16.98 16.98 0 013.948 2.712l1.975-35.077 2.994.17-2.837 50.36c-.001.916.671 1.587 1.499 1.587.774 0 1.43-.601 1.495-1.37l4.413-52.185 2.989.252-4.413 52.186c-.196 2.31-2.165 4.117-4.484 4.117-.271 0-.537-.024-.795-.07-2.267 9.918-8.89 12.07-14.21 12.07a11.17 11.17 0 01-7.701-3.048 6.721 6.721 0 01-4.299 1.548C9.782 75.11 6 71.325 6 67.61c0-4.424.43-7.217 1.42-10.501l.08.002a4.505 4.505 0 01-4.5-4.5c0-.368.038-.585.075-.76 1.829-9.194 8.901-36.428 8.973-36.703l2.904.756c-.07.273-7.123 27.423-8.933 36.523L6 52.61a1.5 1.5 0 002.938.426L22.409 7.5zm10.097 37.539l-.084.16c-.782 1.418-2.227 2.252-3.463 2.966-.615.354-1.252.723-1.81 1.143-4.45 3.354-6.902 10.12-6.902 19.051 0 1.001-.22 1.952-.612 2.807a8.19 8.19 0 005.861 2.444c6.386 0 10.148-3.502 11.486-10.699A4.48 4.48 0 0136 60.11l.006-.247.617-10.922c-.871-1.459-2.378-2.874-4.118-3.901zm-21.441 10.58l-.063.178c-.995 2.87-1.605 5.084-1.861 8.102 1.615-1.401 3.719-2.29 5.86-2.29v3c-2.516 0-5.126 2.024-5.697 4.337.714 1.65 2.571 3.163 4.192 3.163a3.753 3.753 0 003.75-3.75c0-4.127.5-7.858 1.463-11.091-1.449-1.005-3.42-1.576-7.644-1.649zM31.5 64.61c0 3.31-2.691 6-6 6v-3c1.653 0 3-1.345 3-3h3zm34.5-45a4.5 4.5 0 00-4.148 2.75l-3.159 7.583A4.486 4.486 0 0160 33.11l-.006.248-.829 14.709 15.451 7.133a4.523 4.523 0 003.891-.06c.489-.245.92-.568 1.287-.964l4.39-14.843a4.526 4.526 0 014.926-3.181l.534-1.284A4.49 4.49 0 0090 33.11a4.521 4.521 0 00-2.616-4.089l-19.5-9A4.467 4.467 0 0066 19.61zm-39.755 19.5c-7.172 0-11.153 5.824-13.236 10.744l-.827 2.797c3.418.137 5.705.651 7.566 1.73.912-2.13 2.065-3.974 3.444-5.496-.264-1.435-1.602-2.275-3.692-2.275v-3c2.817 0 5.031 1.206 6.079 3.132l-.235.17c.703-.53 1.452-.962 2.113-1.344 1.842-1.063 2.538-1.572 2.538-2.708a3.753 3.753 0 00-3.75-3.75zm46.505-12a9.675 9.675 0 017.03 2.994l-2.162 2.081a6.687 6.687 0 00-4.106-2.033c.063 3.317.476 9.207 3.181 12.189.33-.237.638-.505.925-.804l2.163 2.078a9.665 9.665 0 01-7.031 2.995c-5.376 0-9.75-4.373-9.75-9.75 0-5.376 4.374-9.75 9.75-9.75zm-1.138 11.623l-4.285 2.142a6.745 6.745 0 006.483 2.654c-1.01-1.394-1.71-3.067-2.198-4.796zm-1.094-8.243l-.027.01c-2.614.93-4.491 3.43-4.491 6.36 0 .432.04.854.118 1.263l4.843-2.419c-.305-1.934-.408-3.778-.443-5.214zM14.209 9.2l2.903.758-.59 2.254-2.903-.759.59-2.253z" fill="#242424"/></g></svg>