<svg width="64" height="64" xmlns="http://www.w3.org/2000/svg"><path d="M48.545 6.806l.98.473 8.666 10.928c.17.213.271.483.271.777v7.485a6.373 6.373 0 01-5.21 6.265L53.25 57.25H9.75V32.692a6.374 6.374 0 01-5-6.223v-7.485c0-.294.101-.564.27-.777l8.667-10.928.98-.473h33.878zM46.97 30.258l-.055.076a6.361 6.361 0 01-5.066 2.506 6.362 6.362 0 01-5.122-2.582 6.355 6.355 0 01-5.12 2.582 6.362 6.362 0 01-5.122-2.582 6.355 6.355 0 01-5.12 2.582 6.362 6.362 0 01-5.123-2.582 6.36 6.36 0 01-3.99 2.482l-.001 22.01h3.609V36.642h13.53v18.106l21.361.001V32.699a6.374 6.374 0 01-3.781-2.441zm-20.08 8.884h-8.53v15.5h8.53v-15.5zm20.18-2.5V47.81H32.75V36.643h14.318zm-2.501 2.5H35.25v6.167h9.318v-6.167zm11.394-18.909h-7.743v6.236a3.872 3.872 0 003.476 3.85l.197.016.199.005a3.871 3.871 0 003.871-3.871v-6.236zm-10.243 0h-7.742v6.236a3.872 3.872 0 003.476 3.85l.196.016.2.005a3.871 3.871 0 003.87-3.871v-6.236zm-10.242 0h-7.743v6.236a3.872 3.872 0 003.476 3.85l.197.016.2.005a3.871 3.871 0 003.87-3.871v-6.236zm-10.243 0h-7.742v6.236a3.872 3.872 0 003.476 3.85l.196.016.2.005a3.871 3.871 0 003.87-3.871v-6.236zm-10.242 0H7.25v6.236a3.872 3.872 0 003.475 3.85l.197.016.2.005a3.871 3.871 0 003.87-3.871v-6.236zM47.941 9.307h-32.67l-6.684 8.427h46.037l-6.683-8.427z" fill="#242424" fill-rule="nonzero"/></svg>