<svg width="74" height="72" xmlns="http://www.w3.org/2000/svg"><g fill="none" fill-rule="evenodd"><path d="M26.155 35.914c-2.799 4.14-4.92 18.124 2.226 27.326 6.166 7.942 16.259 9.091 24.124 8.691 8.36-.425 15.212-6.179 18.814-13.461 3.535-7.15 3.064-25.234-5.62-29.853-12.566-6.682-31.679-4.328-39.544 7.297z" fill="#FFD98C"/><path d="M50.413 7.068l1.017.491 9 11.348c.176.222.28.502.28.807v7.773a6.618 6.618 0 01-5.411 6.507v25.458H10.124V33.949a6.619 6.619 0 01-5.192-6.462v-7.773c0-.305.105-.585.28-.806l9-11.349 1.018-.491h35.182zm-1.637 24.355a6.609 6.609 0 01-5.318 2.68 6.607 6.607 0 01-5.318-2.68 6.605 6.605 0 01-5.318 2.68 6.607 6.607 0 01-5.319-2.68 6.605 6.605 0 01-5.318 2.68 6.607 6.607 0 01-5.318-2.68 6.614 6.614 0 01-4.146 2.576v22.857l3.748-.001V38.052h14.05v18.803h22.183V33.957a6.619 6.619 0 01-3.926-2.533zm-20.853 9.224h-8.858v16.097h8.858V40.647zm20.955-2.595v11.596H34.01V38.052h14.868zm-2.596 2.595h-9.676v6.405h9.676v-6.405zm11.832-19.636h-8.04v6.476a4.02 4.02 0 003.61 3.999l.204.015.206.006c2.22 0 4.02-1.8 4.02-4.02V21.01zm-10.637 0h-8.04v6.476a4.02 4.02 0 003.61 3.999l.204.015.207.006c2.22 0 4.02-1.8 4.02-4.02V21.01zm-10.635 0H28.8v6.476a4.02 4.02 0 003.814 4.014l.207.006c2.22 0 4.02-1.8 4.02-4.02V21.01zm-10.637 0h-8.04v6.476a4.02 4.02 0 003.813 4.014l.207.006c2.22 0 4.02-1.8 4.02-4.02V21.01zm-10.636 0h-8.04v6.476a4.02 4.02 0 003.813 4.014l.207.006c2.22 0 4.02-1.8 4.02-4.02V21.01zM49.785 9.665H15.858l-6.94 8.75h47.806l-6.94-8.75z" fill="#242424" fill-rule="nonzero"/></g></svg>