<svg width="114" height="104" xmlns="http://www.w3.org/2000/svg"><g fill="none" fill-rule="evenodd"><path d="M45.78 51.876c-4.043 5.979-7.108 26.178 3.214 39.471 8.907 11.471 23.486 13.132 34.846 12.554 12.077-.615 21.974-8.925 27.176-19.445 5.107-10.327 4.426-36.448-8.118-43.12-18.15-9.652-45.758-6.251-57.118 10.54z" fill="#FCA274"/><path d="M32.25 37.623c12.26 0 23.117 6.009 27.384 15.047C74.887 53.445 87 63.555 87 75.873a5.256 5.256 0 01-5.25 5.25c-.256 0-.506-.025-.75-.073v1.573c0 4.963-4.037 9-9 9H43.5c-4.964 0-9-4.037-9-9v-1.559a4.865 4.865 0 01-.75.059 5.258 5.258 0 01-5.196-4.5H18c-4.963 0-9-4.037-9-9v-1.559a4.865 4.865 0 01-.75.059A5.256 5.256 0 013 60.873c0-12.82 13.122-23.25 29.25-23.25zm25.5 33c-9.184 0-14.06 4.078-17.62 7.056-.913.764-1.774 1.484-2.63 2.067v2.877c0 3.309 2.691 6 6 6H72c3.309 0 6-2.691 6-6l.001-3.224c-.483-.398-.981-.844-1.51-1.318-3.306-2.972-8.304-7.458-18.741-7.458zm-12.75 12v3h-3v-3h3zm6 0v3h-3v-3h3zM34.74 66.135l-.115.162c-1.993 2.853-3.125 6.115-3.125 9.576 0 1.24 1.01 2.25 2.25 2.25 1.173 0 2.622-1.212 4.455-2.745 1.984-1.66 4.512-3.774 8.02-5.376-2.332-2.197-6.756-3.721-11.484-3.867zm23.01-10.512c-2.498 0-4.916.27-7.207.776 7.538 1.763 13.11 6.344 13.864 11.842 2.86.566 5.217 1.475 7.2 2.527-1.096-4.322-4.16-8.1-4.707-8.626l2.076-2.163c.951.912 5.618 6.666 5.995 12.92 1.375 1.018 2.52 2.047 3.525 2.948 1.303 1.172 2.534 2.276 3.254 2.276 1.24 0 2.25-1.01 2.25-2.25 0-11.166-11.776-20.25-26.25-20.25zm-25.5-15c-2.457 0-4.837.262-7.094.751 2.352.53 4.536 1.338 6.48 2.405.146.08.29.161.432.244l-.431-.244a19.62 19.62 0 01.852.495l.084.053C36.728 46.909 39 50.532 39 54.623v1.741l-1.722-.258c-.033-.006-3.245-.483-5.028-.483-9.184 0-14.06 4.079-17.62 7.056-.913.764-1.774 1.484-2.63 2.067v2.877c0 3.309 2.691 6 6 6h10.636c1.38-11.376 13.118-20.382 27.606-20.97-4.177-7.278-13.492-12.03-23.992-12.03zm-12.75 27v3h-3v-3h3zm6 0v3h-3v-3h3zm18.511-8.998l-.078.036c-2.585 1.24-4.872 2.816-6.757 4.65 5.182.615 9.749 2.694 12.06 5.542 2.417-.752 5.225-1.23 8.514-1.23 1.236 0 2.404.056 3.507.161-1.387-5.052-8.694-9.058-17.246-9.159zm-34.77-7.49l-.116.162C7.132 54.15 6 57.412 6 60.873c0 1.24 1.01 2.25 2.25 2.25 1.173 0 2.622-1.212 4.455-2.745 1.984-1.66 4.512-3.774 8.02-5.376-2.332-2.197-6.756-3.721-11.484-3.867zm9.268-7.51l-.076.036c-2.585 1.24-4.872 2.816-6.757 4.65 5.182.615 9.749 2.694 12.06 5.542 2.417-.752 5.225-1.23 8.514-1.23 1.036 0 2.427.132 3.546.264-.495-2.087-1.891-3.982-4.072-5.524l-.049-.035-.299-.204a15.297 15.297 0 00-.303-.197l.135.087c-.108-.07-.217-.139-.328-.207l.193.12a15.946 15.946 0 00-.37-.226l.177.106c-.11-.067-.222-.134-.336-.2l.16.094c-.167-.1-.338-.197-.512-.293-3.238-1.776-7.27-2.737-11.683-2.783zM88.5 13.623c2.481 0 4.5 2.019 4.5 4.5v21c0 2.481-2.019 4.5-4.5 4.5H69.75l-3.451 4.6a3.513 3.513 0 01-2.797 1.4c-1.965 0-3.502-1.534-3.502-3.495V18.123c0-2.481 2.019-4.5 4.5-4.5h24zm0 3h-24a1.5 1.5 0 00-1.5 1.5v28.005c0 .115.036.495.502.495a.51.51 0 00.4-.201l4.348-5.799H88.5a1.5 1.5 0 001.5-1.5v-21a1.5 1.5 0 00-1.5-1.5zm-8.159 3A6.665 6.665 0 0187 26.282c0 2.117-.645 3.556-2.223 4.968l-6.284 5.614a2.986 2.986 0 01-1.993.759c-.738 0-1.448-.27-1.995-.76l-6.282-5.613A6.67 6.67 0 0166 26.282a6.665 6.665 0 016.659-6.659c1.345 0 2.632.457 3.841 1.362 1.209-.904 2.496-1.362 3.841-1.362zm0 3c-.917 0-1.85.473-2.774 1.407L76.5 25.11l-1.067-1.08c-.924-.934-1.857-1.407-2.775-1.407A3.664 3.664 0 0069 26.282c0 1.042.445 2.037 1.221 2.73l6.283 5.614 6.275-5.614c.936-.838 1.221-1.475 1.221-2.73a3.664 3.664 0 00-3.659-3.659zm-27.841 0v3h-6v-3h6zm-3.156-10.907l4.812 2.939-1.563 2.562-4.812-2.938 1.563-2.563zM57.467 4.5l3.017 4.704-2.524 1.62-3.02-4.704 2.527-1.62z" fill="#242424"/></g></svg>