<svg width="38" height="24" xmlns="http://www.w3.org/2000/svg"><g fill-rule="nonzero" fill="none"><path d="M35 0H3C1.3 0 0 1.3 0 3v18c0 1.7 1.4 3 3 3h32c1.7 0 3-1.3 3-3V3c0-1.7-1.4-3-3-3z" fill="#000" opacity=".07"/><path d="M35 1c1.1 0 2 .9 2 2v18c0 1.1-.9 2-2 2H3c-1.1 0-2-.9-2-2V3c0-1.1.9-2 2-2h32" fill="#FFF"/><circle fill="#EB001B" cx="15" cy="12" r="7"/><circle fill="#F79E1B" cx="23" cy="12" r="7"/><path d="M22 12c0-2.4-1.2-4.5-3-5.7-1.8 1.3-3 3.4-3 5.7 0 2.3 1.2 4.5 3 5.7 1.8-1.2 3-3.3 3-5.7z" fill="#FF5F00"/></g></svg>