<svg width="18" height="18" xmlns="http://www.w3.org/2000/svg"><path d="M16.668 0c.734 0 1.331.581 1.331 1.298V16.7c0 .717-.597 1.299-1.331 1.299H1.328C.595 18 0 17.418 0 16.7V1.298C0 .58.595 0 1.328 0zM5.339 6.748H2.667v8.59h2.672v-8.59zm6.797-.213c-1.3 0-2.17.712-2.526 1.387h-.037V6.748H7.014v8.59h2.667v-4.249c0-1.12.212-2.206 1.6-2.206 1.37 0 1.388 1.282 1.388 2.278v4.177h2.67v-4.711c0-2.314-.5-4.092-3.203-4.092zM4.004 2.478A1.547 1.547 0 104 5.573a1.547 1.547 0 00.003-3.095z" fill="#242424" fill-rule="evenodd"/></svg>